<?xml version="1.0" encoding="utf-8"?>
<!DOCTYPE svg PUBLIC "-//W3C//DTD SVG 1.1//EN" "http://www.w3.org/Graphics/SVG/1.1/DTD/svg11.dtd">
<svg version="1.1" id="Ebene_1" xmlns="http://www.w3.org/2000/svg" xmlns:xlink="http://www.w3.org/1999/xlink" x="0px" y="0px"
	 width="640px" height="480px" viewBox="0 0 640 480" style="enable-background:new 0 0 640 480;" xml:space="preserve">
<g>
	<path style="fill:#1C4A7A;" d="M113.88,312.39c5.35,8.891,11.03,17.92,16.97,26.931"/>
	<g>
		<path style="fill:#1C4A7A;" d="M600.24,177.96c-15.07-6.14-33.101-12.78-53.79-19.2c-55.851-17.34-141.55-35.93-243.7-31.48
			c29.91-18.73,57.58-32.94,80.72-43.45c46.931-21.29,83.49-31.32,98.2-34.87C532.42,79.75,573.73,124.53,600.24,177.96z"/>
		<path style="fill:#1C4A7A;" d="M609.15,209H469.94c-23.521-23.91-44.601-41.33-60.671-53.22c51.86,5.69,95.851,16.37,128.95,26.6
			C567.72,191.5,591.75,201.18,609.15,209z"/>
		<path style="fill:#1C4A7A;" d="M449.5,31.9c-19.1,5.87-45.13,15.04-75.55,28.8c-52.94,23.95-128.76,66.54-201.78,136.88
			c7.5-34.01,16.61-63.35,25.2-86.97c19.15-52.7,39.27-87.3,45.56-97.54c24.46-6.12,50.07-9.38,76.43-9.38
			C365.78,3.69,409.86,13.78,449.5,31.9z"/>
		<path style="fill:#1C4A7A;" d="M208.04,24.03c-9.39,17.89-21.74,43.99-33.87,77.2c-19.8,54.26-42.25,137.54-43.32,238.09
			c-5.94-9.011-11.62-18.04-16.97-26.931C82.76,260.66,61.26,201.15,48.47,159.35C84.38,97.82,140.64,49.64,208.04,24.03z"/>
		<path style="fill:#1C4A7A;" d="M217.77,480H51.64C22.68,432.47,6.33,376.73,6.33,317.05c0-44.45,9.4-86.73,26.27-125.04
			c13.46,39.9,33.14,88.851,59.85,133.271C119.36,370.01,170.61,443.05,217.77,480z"/>
	</g>
	<path style="fill:#1C4A7A;" d="M36,184.54c-0.06,0.12-0.11,0.24-0.17,0.36c-0.05-0.16-0.1-0.31-0.15-0.47
		c0.07,0.03,0.32,0.06,0.32,0.09V184.54z"/>
</g>
</svg>
