<?xml version="1.0" encoding="utf-8"?>
<!-- Generator: Adobe Illustrator 16.0.0, SVG Export Plug-In . SVG Version: 6.00 Build 0)  -->
<svg version="1.2" baseProfile="tiny" id="Ebene_1" xmlns="http://www.w3.org/2000/svg" xmlns:xlink="http://www.w3.org/1999/xlink"
	 x="0px" y="0px" width="640px" height="480px" viewBox="0 0 640 480" xml:space="preserve">
<g>
	<path fill="#1C4A7A" d="M376.754,136.96c-5.639-0.32-11.043-0.529-16.239-0.668c-38.451-1.017-68.939,1.936-90.122,5.25
		c47.186-32.631,114.399-69.316,204.326-96.682c57.784,33.05,104.021,83.953,131.207,145.205
		c-90.86-36.447-168.559-49.386-225.327-52.881"/>
	<path fill="#1C4A7A" d="M613.894,209H469.942c-25.585-26-48.272-44.327-64.775-56.207c55.305,5.752,126.527,20.479,208.113,54.739
		C613.49,208.09,613.685,209,613.894,209z"/>
	<path fill="#1C4A7A" d="M237.121,148.618c-0.613,0.181-1.003,0.306-1.143,0.348l0.14,0.432c-1.811,1.393-3.579,2.771-5.307,4.15
		c-32.228,25.612-54.525,48.843-68.507,65.262c10.877-55.137,32.45-125.358,74.469-204.13c26.308-7.159,54.009-10.989,82.588-10.989
		c49.552,0,96.432,11.503,138.088,31.977C355.475,68.522,283.359,112.922,237.121,148.618z"/>
	<path fill="#1C4A7A" d="M218,20.445v0.015c-44,88.145-65.341,165.246-74.017,222.152c0,0.015-0.003,0.015-0.003,0.015
		c-0.224,0.348-0.371,0.571-0.426,0.669l0.309,0.194c-1.087,7.186-1.978,14.039-2.729,20.557
		c-5.028,43.939-3.884,77.854-1.907,99.232c-32.019-45.696-67.867-110.332-94.997-196.43C81.54,98.675,143.44,45.904,218.007,20.431
		C218.007,20.431,218,20.431,218,20.445z"/>
	<path fill="#1C4A7A" d="M228.806,480H51.639C22.684,432.469,6.334,376.729,6.334,317.052C6.334,269.687,17,224.785,36,184.536
		v-0.015c0-0.028-0.349-0.069-0.335-0.098c34.232,102.588,80.227,174.006,116.146,218.53
		C184.469,443.429,213.082,468.117,228.806,480z"/>
</g>
</svg>
