<?xml version="1.0" encoding="utf-8"?>
<!-- Generator: Adobe Illustrator 16.0.0, SVG Export Plug-In . SVG Version: 6.00 Build 0)  -->
<!DOCTYPE svg PUBLIC "-//W3C//DTD SVG 1.1//EN" "http://www.w3.org/Graphics/SVG/1.1/DTD/svg11.dtd">
<svg version="1.1" id="Ebene_1" xmlns="http://www.w3.org/2000/svg" xmlns:xlink="http://www.w3.org/1999/xlink" x="0px" y="0px"
	 width="640px" height="480px" viewBox="0 0 640 480" style="enable-background:new 0 0 640 480;" xml:space="preserve">
<g>
	<path style="fill:#1C4A7A;" d="M602.86035,183.35986c-15.77051-6.5498-35.09082-13.79004-57.60059-20.77979
		c-58.26953-18.1001-149.21973-37.56006-257.44971-30.47998c35.06982-23.03027,67.6499-39.95996,94.26025-52.02002
		c43.33008-19.6499,77.87988-29.74023,94.70996-34.03027C531.49023,77.8999,575.66992,125.81982,602.86035,183.35986z"/>
	<path style="fill:#1C4A7A;" d="M613.88965,209H469.94043c-25.58008-26-48.27051-44.33008-64.77051-56.20996
		c55.2998,5.75,126.52051,20.47998,208.11035,54.73975C613.49023,208.08984,613.67969,209,613.88965,209z"/>
	<path style="fill:#1C4A7A;" d="M454.90039,34.43994c-19.24023,5.72998-46.70996,15.16992-79.30078,29.91016
		c-54.93945,24.8501-134.61963,69.87012-210.06982,145.3501c6.66016-33.11035,14.96045-62.22021,23.17041-86.47998
		c10.69971-30.24023,24.41992-62.74023,42-96.94043c2.63965-4.83984,4.90967-8.77979,6.68994-11.75977
		C263.50977,7.45996,291,3.68994,319.35986,3.68994C367.90039,3.68994,413.87988,14.72998,454.90039,34.43994z"/>
	<path style="fill:#1C4A7A;" d="M237.39014,14.52002c-1.78027,2.97998-4.05029,6.91992-6.68994,11.75977
		c1.96973-3.84961,4-7.70996,6.06982-11.59961C236.97998,14.62012,237.18018,14.56982,237.39014,14.52002z"/>
	<path style="fill:#1C4A7A;" d="M177.93018,102.6001c-20.55029,56.2998-43.9502,143.98975-43.1001,249.84033
		c-8.62988-12.66016-16.83984-25.45996-24.37988-37.99023c-30.43018-50.60059-51.72021-108.54004-64.69043-150.3501
		C82.47021,98.56982,142.02979,47.60986,213.66016,21.9502C204.1499,39.68994,190.91992,67.02002,177.93018,102.6001z"/>
	<path style="fill:#1C4A7A;" d="M224.27002,480H51.64014C22.68018,432.46973,6.33008,376.73047,6.33008,317.0498
		c0-46.53027,10.2998-90.67969,28.67969-130.37988c13.41016,40.37988,33.40039,90.87988,60.87012,136.54004
		C123.4502,369.0498,176.66016,444.79004,224.27002,480z"/>
</g>
</svg>
