<?xml version="1.0" encoding="utf-8"?>
<!-- Generator: Adobe Illustrator 16.0.0, SVG Export Plug-In . SVG Version: 6.00 Build 0)  -->
<svg version="1.2" baseProfile="tiny" id="Ebene_1" xmlns="http://www.w3.org/2000/svg" xmlns:xlink="http://www.w3.org/1999/xlink"
	 x="0px" y="0px" width="640px" height="480px" viewBox="0 0 640 480" xml:space="preserve">
<g>
	<path fill="#2A6EA0" d="M595.24,168.29c-16.28-7.1-35.8-14.46-58.63-21.13c-66.46-19.42-141.04-27.5-222.2-24.12
		c25.78-15.53,49.62-27.63,69.938-36.86C434.06,63.6,472.1,53.73,484.69,50.81C530.99,79.62,569.22,120.16,595.24,168.29z"/>
	<path fill="#2A6EA0" d="M610.67,209H469.94c-24.392-24.79-46.16-42.61-62.432-54.52c16.17,1.26,31.96,3.07,47.4,5.42h0.01
		c37.17,6.75,79.22,17.55,125.07,34.49c0.028,0.01,0.068,0.03,0.1,0.04C592.07,199.54,602.24,204.53,610.67,209z"/>
	<path fill="#2A6EA0" d="M446.05,30.35c-18.92,5.92-44.03,14.91-73.13,28.07c-51.68,23.38-125.08,64.46-196.48,131.64
		c7.08-30.41,15.37-56.83,23.22-78.44c20.85-57.4,42.85-93.25,46.75-99.4c23.41-5.57,47.84-8.53,72.95-8.53
		C364.44,3.69,407.31,13.21,446.05,30.35z"/>
	<path fill="#2A6EA0" d="M204.51,25.39c-9.25,17.87-21.08,43.19-32.68,74.98c-19.42,53.2-41.36,134.17-43.37,231.938
		c-4.91-7.629-9.74-15.379-14.44-23.209C83.36,258.13,62.07,199.55,49.29,157.97v-0.01C84.59,98.17,139.18,51.13,204.51,25.39z"/>
	<path fill="#2A6EA0" d="M213.49,480H51.64C22.68,432.47,6.33,376.73,6.33,317.05c0-42.479,8.58-82.97,24.06-119.91
		c13.43,38.82,32.5,85.168,57.92,127.43c23.17,38.52,49.23,75.5,73.37,104.13C180.03,450.46,197.35,467.6,213.49,480z"/>
</g>
</svg>
